HIERARCHY
ROOT Hips
{
	OFFSET 0.000000 97.167313 0.000000
	CHANNELS 6 Xposition Yposition Zposition Xrotation Yrotation Zrotation
	JOINT Spine
	{
		OFFSET 0.000000 13.784798 0.064400
		CHANNELS 3 Xrotation Yrotation Zrotation
		JOINT Spine1
		{
			OFFSET 0.000000 12.037903 0.404700
			CHANNELS 3 Xrotation Yrotation Zrotation
			JOINT Spine2
			{
				OFFSET 0.000000 17.795601 0.420200
				CHANNELS 3 Xrotation Yrotation Zrotation
				JOINT Neck
				{
					OFFSET 0.000000 39.131302 11.954600
					CHANNELS 3 Xrotation Yrotation Zrotation
					JOINT Head
					{
						OFFSET 0.000000 14.456192 15.627699
						CHANNELS 3 Xrotation Yrotation Zrotation
						JOINT HeadTop_End
						{
							OFFSET 0.000000 15.703506 7.603401
							CHANNELS 3 Xrotation Yrotation Zrotation
							End Site
							{
								OFFSET 0.000000 17.447403 0.000000
							}
						}
					}
				}
				JOINT LeftShoulder
				{
					OFFSET 17.399500 24.608795 1.168800
					CHANNELS 3 Xrotation Yrotation Zrotation
					JOINT LeftArm
					{
						OFFSET 18.980635 5.765305 1.818600
						CHANNELS 3 Xrotation Yrotation Zrotation
						JOINT LeftForeArm
						{
							OFFSET 49.290169 0.000000 0.000000
							CHANNELS 3 Xrotation Yrotation Zrotation
							JOINT LeftHand
							{
								OFFSET 31.562012 0.000000 0.000000
								CHANNELS 3 Xrotation Yrotation Zrotation
								JOINT LeftHandThumb1
								{
									OFFSET 6.133995 -4.388519 7.076070
									CHANNELS 3 Xrotation Yrotation Zrotation
									JOINT LeftHandThumb2
									{
										OFFSET 6.037666 -3.485840 3.485847
										CHANNELS 3 Xrotation Yrotation Zrotation
										JOINT LeftHandThumb3
										{
											OFFSET 6.496506 -3.750763 3.750761
											CHANNELS 3 Xrotation Yrotation Zrotation
											JOINT LeftHandThumb4
											{
												OFFSET 5.616882 -3.242905 3.242910
												CHANNELS 3 Xrotation Yrotation Zrotation
												End Site
												{
													OFFSET -1.254608 7.132141 0.375429
												}
											}
										}
									}
								}
								JOINT LeftHandPinky1
								{
									OFFSET 18.920792 -0.453171 -11.426712
									CHANNELS 3 Xrotation Yrotation Zrotation
									JOINT LeftHandPinky2
									{
										OFFSET 4.919586 0.000000 0.000000
										CHANNELS 3 Xrotation Yrotation Zrotation
										JOINT LeftHandPinky3
										{
											OFFSET 5.233047 0.000000 0.000000
											CHANNELS 3 Xrotation Yrotation Zrotation
											JOINT LeftHandPinky4
											{
												OFFSET 5.571716 0.000000 0.000000
												CHANNELS 3 Xrotation Yrotation Zrotation
												End Site
												{
													OFFSET -3.459808 4.342407 -0.466164
												}
											}
										}
									}
								}
								JOINT LeftHandRing1
								{
									OFFSET 22.726120 -0.094986 -6.500475
									CHANNELS 3 Xrotation Yrotation Zrotation
									JOINT LeftHandRing2
									{
										OFFSET 6.408615 0.000000 0.000000
										CHANNELS 3 Xrotation Yrotation Zrotation
										JOINT LeftHandRing3
										{
											OFFSET 6.150223 0.000000 0.000000
											CHANNELS 3 Xrotation Yrotation Zrotation
											JOINT LeftHandRing4
											{
												OFFSET 6.145386 0.000000 0.000000
												CHANNELS 3 Xrotation Yrotation Zrotation
												End Site
												{
													OFFSET -3.671402 4.923981 -0.202372
												}
											}
										}
									}
								}
								JOINT LeftHandMiddle1
								{
									OFFSET 23.373947 0.000000 0.000001
									CHANNELS 3 Xrotation Yrotation Zrotation
									JOINT LeftHandMiddle2
									{
										OFFSET 6.996567 0.000000 0.000000
										CHANNELS 3 Xrotation Yrotation Zrotation
										JOINT LeftHandMiddle3
										{
											OFFSET 7.015945 0.000000 0.000000
											CHANNELS 3 Xrotation Yrotation Zrotation
											JOINT LeftHandMiddle4
											{
												OFFSET 7.721573 0.000000 0.000000
												CHANNELS 3 Xrotation Yrotation Zrotation
												End Site
												{
													OFFSET -4.651108 6.158463 0.251582
												}
											}
										}
									}
								}
								JOINT LeftHandIndex1
								{
									OFFSET 21.310577 -0.490082 6.209344
									CHANNELS 3 Xrotation Yrotation Zrotation
									JOINT LeftHandIndex2
									{
										OFFSET 7.536453 0.000000 0.000000
										CHANNELS 3 Xrotation Yrotation Zrotation
										JOINT LeftHandIndex3
										{
											OFFSET 7.512344 0.000000 0.000000
											CHANNELS 3 Xrotation Yrotation Zrotation
											JOINT LeftHandIndex4
											{
												OFFSET 10.212402 0.000000 0.000001
												CHANNELS 3 Xrotation Yrotation Zrotation
												End Site
												{
													OFFSET -5.180801 8.690506 1.388433
												}
											}
										}
									}
								}
							}
						}
					}
				}
				JOINT RightShoulder
				{
					OFFSET -17.399500 24.608795 1.168800
					CHANNELS 3 Xrotation Yrotation Zrotation
					JOINT RightArm
					{
						OFFSET -18.980635 5.765305 1.818600
						CHANNELS 3 Xrotation Yrotation Zrotation
						JOINT RightForeArm
						{
							OFFSET -49.290169 0.000000 0.000000
							CHANNELS 3 Xrotation Yrotation Zrotation
							JOINT RightHand
							{
								OFFSET -31.562012 0.000000 0.000000
								CHANNELS 3 Xrotation Yrotation Zrotation
								JOINT RightHandThumb1
								{
									OFFSET -6.133995 -4.388519 7.076070
									CHANNELS 3 Xrotation Yrotation Zrotation
									JOINT RightHandThumb2
									{
										OFFSET -6.037666 -3.485840 3.485847
										CHANNELS 3 Xrotation Yrotation Zrotation
										JOINT RightHandThumb3
										{
											OFFSET -6.496506 -3.750763 3.750761
											CHANNELS 3 Xrotation Yrotation Zrotation
											JOINT RightHandThumb4
											{
												OFFSET -5.616882 -3.242905 3.242910
												CHANNELS 3 Xrotation Yrotation Zrotation
												End Site
												{
													OFFSET 1.254608 7.132141 0.375429
												}
											}
										}
									}
								}
								JOINT RightHandIndex1
								{
									OFFSET -21.310577 -0.490082 6.209344
									CHANNELS 3 Xrotation Yrotation Zrotation
									JOINT RightHandIndex2
									{
										OFFSET -7.536453 0.000000 0.000000
										CHANNELS 3 Xrotation Yrotation Zrotation
										JOINT RightHandIndex3
										{
											OFFSET -7.512344 0.000000 0.000000
											CHANNELS 3 Xrotation Yrotation Zrotation
											JOINT RightHandIndex4
											{
												OFFSET -10.212402 0.000000 0.000001
												CHANNELS 3 Xrotation Yrotation Zrotation
												End Site
												{
													OFFSET 5.180801 8.690506 1.388433
												}
											}
										}
									}
								}
								JOINT RightHandMiddle1
								{
									OFFSET -23.373947 0.000000 0.000001
									CHANNELS 3 Xrotation Yrotation Zrotation
									JOINT RightHandMiddle2
									{
										OFFSET -6.996567 0.000000 0.000000
										CHANNELS 3 Xrotation Yrotation Zrotation
										JOINT RightHandMiddle3
										{
											OFFSET -7.015945 0.000000 0.000000
											CHANNELS 3 Xrotation Yrotation Zrotation
											JOINT RightHandMiddle4
											{
												OFFSET -7.721573 0.000000 0.000000
												CHANNELS 3 Xrotation Yrotation Zrotation
												End Site
												{
													OFFSET 4.651108 6.158463 0.251582
												}
											}
										}
									}
								}
								JOINT RightHandRing1
								{
									OFFSET -22.726120 -0.094986 -6.500475
									CHANNELS 3 Xrotation Yrotation Zrotation
									JOINT RightHandRing2
									{
										OFFSET -6.408615 0.000000 0.000000
										CHANNELS 3 Xrotation Yrotation Zrotation
										JOINT RightHandRing3
										{
											OFFSET -6.150223 0.000000 0.000000
											CHANNELS 3 Xrotation Yrotation Zrotation
											JOINT RightHandRing4
											{
												OFFSET -6.145386 0.000000 0.000000
												CHANNELS 3 Xrotation Yrotation Zrotation
												End Site
												{
													OFFSET 3.671402 4.923981 -0.202372
												}
											}
										}
									}
								}
								JOINT RightHandPinky1
								{
									OFFSET -18.920792 -0.453171 -11.426712
									CHANNELS 3 Xrotation Yrotation Zrotation
									JOINT RightHandPinky2
									{
										OFFSET -4.919586 0.000000 0.000000
										CHANNELS 3 Xrotation Yrotation Zrotation
										JOINT RightHandPinky3
										{
											OFFSET -5.233047 0.000000 0.000000
											CHANNELS 3 Xrotation Yrotation Zrotation
											JOINT RightHandPinky4
											{
												OFFSET -5.571716 0.000000 0.000000
												CHANNELS 3 Xrotation Yrotation Zrotation
												End Site
												{
													OFFSET 3.459808 4.342407 -0.466164
												}
											}
										}
									}
								}
							}
						}
					}
				}
			}
		}
	}
	JOINT LeftUpLeg
	{
		OFFSET 19.899099 -7.885101 -3.429500
		CHANNELS 3 Xrotation Yrotation Zrotation
		JOINT LeftLeg
		{
			OFFSET 1.745560 -36.997807 10.304700
			CHANNELS 3 Xrotation Yrotation Zrotation
			JOINT LeftFoot
			{
				OFFSET -1.745558 -29.803308 -13.615400
				CHANNELS 3 Xrotation Yrotation Zrotation
				JOINT LeftToeBase
				{
					OFFSET 1.181900 -18.539904 15.226099
					CHANNELS 3 Xrotation Yrotation Zrotation
					JOINT LeftToe_End
					{
						OFFSET -0.863701 1.402801 16.534700
						CHANNELS 3 Xrotation Yrotation Zrotation
						End Site
						{
							OFFSET 0.000000 16.616566 0.000000
						}
					}
				}
			}
		}
	}
	JOINT RightUpLeg
	{
		OFFSET -19.899099 -7.885101 -3.429500
		CHANNELS 3 Xrotation Yrotation Zrotation
		JOINT RightLeg
		{
			OFFSET -1.745560 -36.997807 10.304700
			CHANNELS 3 Xrotation Yrotation Zrotation
			JOINT RightFoot
			{
				OFFSET 1.745558 -29.803308 -13.615400
				CHANNELS 3 Xrotation Yrotation Zrotation
				JOINT RightToeBase
				{
					OFFSET -1.181900 -18.539904 15.226099
					CHANNELS 3 Xrotation Yrotation Zrotation
					JOINT RightToe_End
					{
						OFFSET 0.863701 1.402801 16.534700
						CHANNELS 3 Xrotation Yrotation Zrotation
						End Site
						{
							OFFSET 0.000000 16.616566 0.000000
						}
					}
				}
			}
		}
	}
}
MOTION
Frames: 4
Frame Time: 0.033333
-0.007461 83.722961 3.424297 12.441770 -21.866443 -4.108345 35.831446 5.443652 7.527637 -2.874523 1.446247 -4.552584 -1.956495 -0.336169 -3.245162 -18.155987 3.744846 4.001697 -22.006304 13.491849 -3.773376 0.000000 -0.000000 0.000000 7.271400 -37.546496 22.592620 -30.380408 -11.797245 -71.441163 -0.005182 -64.713297 7.726049 -31.249481 -7.379797 3.567131 16.185499 29.318430 -23.146318 0.081690 -3.109426 31.629660 86.669985 8.445492 -8.747654 0.000003 -0.000003 -0.000003 -8.914870 5.703406 -58.965276 -6.266488 -4.572892 -37.196206 -0.333633 -8.216123 -46.059872 -0.000002 -0.000003 -0.000003 -10.611420 20.760927 -73.187717 4.781176 -0.851380 -40.707456 -4.823642 -0.735380 -57.317397 -0.000002 -0.000001 0.000005 -2.970119 0.498645 -81.883429 4.290176 -12.059092 -50.765473 -10.779443 -6.707771 -51.076414 0.000001 -0.000001 -0.000001 0.016547 0.020158 -62.650743 3.417435 -3.814605 -92.040433 6.873829 -0.995163 -31.321974 0.000001 0.000001 0.000001 11.800014 22.166416 -20.625527 -51.885457 25.844288 71.793819 -0.009883 60.935321 -18.524475 -33.144251 4.917729 14.263628 -6.666403 -8.246971 4.694893 31.152503 -25.871650 -9.425328 34.286856 -23.029521 -7.680579 -0.000000 0.000001 0.000002 -4.887998 -9.033998 55.242604 0.234229 0.161412 104.710304 0.661669 -1.834185 38.217712 -0.000002 0.000000 0.000001 2.578525 -5.315564 71.485538 -14.334699 4.170146 107.253696 -6.775604 -3.699503 11.661575 -0.000000 0.000002 -0.000009 -9.235600 -17.082827 80.313756 0.979626 -0.049188 88.783819 -5.884017 1.621749 12.164809 -0.000002 0.000001 -0.000005 -10.019174 -21.702533 80.947038 2.834992 1.205228 62.935487 0.424044 4.422661 49.127655 -0.000001 0.000000 0.000000 -49.660673 -4.769019 9.732956 71.136960 8.490838 -1.012568 11.776475 0.444922 -2.983334 -22.617782 1.941926 -4.671454 0.000002 0.000000 0.000000 -29.626407 -8.883709 6.341478 34.185244 -4.868956 5.336207 -12.764900 0.315598 -4.079415 -3.065410 0.525812 0.003269 0.000000 0.000000 0.000000 
-1.093659 91.632584 13.205986 7.593082 -18.460808 1.840444 30.735134 4.219234 0.037538 -3.277754 1.404465 -3.242268 -2.761526 0.231903 -2.546831 -13.265701 0.590403 -1.002150 -12.331884 9.074965 0.928455 -0.000000 -0.000000 0.000000 8.953511 -40.566129 21.320050 -25.042086 -7.354609 -63.364614 0.290660 -70.421545 -11.945833 -42.211368 -9.791255 9.731396 16.185499 29.318430 -23.146309 0.081686 -3.109425 31.629663 86.669985 8.445496 -8.747655 -0.000000 -0.000002 -0.000001 -8.914871 5.703409 -58.965269 -6.266487 -4.572895 -37.196210 -0.333632 -8.216117 -46.059866 -0.000002 -0.000000 -0.000001 -10.611425 20.760934 -73.187717 4.781170 -0.851380 -40.707460 -4.823643 -0.735379 -57.317397 -0.000000 0.000001 0.000003 -2.970121 0.498649 -81.883416 4.290170 -12.059098 -50.765473 -10.779441 -6.707771 -51.076407 -0.000002 -0.000001 0.000001 0.016549 0.020158 -62.650750 3.417437 -3.814603 -92.040440 6.873825 -0.995165 -31.321967 0.000000 0.000003 0.000001 9.444164 23.635825 -15.155929 -39.632156 18.023720 71.390510 0.970005 73.515894 -14.017152 -27.206090 -6.389907 6.357555 -6.666403 -8.246974 4.694893 31.152506 -25.871659 -9.425325 34.286860 -23.029523 -7.680572 -0.000000 -0.000000 -0.000004 -4.887995 -9.033995 55.242601 0.234224 0.161412 104.710304 0.661669 -1.834184 38.217719 0.000000 -0.000001 -0.000002 2.578527 -5.315564 71.485545 -14.334694 4.170146 107.253696 -6.775604 -3.699504 11.661575 -0.000002 -0.000003 -0.000009 -9.235597 -17.082824 80.313763 0.979612 -0.049184 88.783812 -5.884018 1.621749 12.164810 -0.000001 -0.000002 -0.000005 -10.019174 -21.702547 80.947044 2.834991 1.205227 62.935487 0.424043 4.422658 49.127652 0.000000 -0.000000 0.000002 -56.795513 0.533839 9.720669 59.887543 -5.769098 -2.686760 8.234091 -1.789903 -10.242313 13.826985 10.026952 -21.124378 0.000000 -0.000000 -0.000002 -13.849312 -9.345314 -1.166675 21.043931 9.673486 3.267355 -10.628418 1.226563 -7.057245 -2.638575 2.616564 1.997539 -0.000000 -0.000002 0.000000 
-2.806356 99.487892 23.043221 3.025509 -18.142961 6.580349 27.426015 2.282614 -7.620982 -3.209526 1.425563 -2.064475 -3.027449 0.777466 -1.806833 -9.875666 -1.168352 -4.218894 -4.545596 5.701955 4.443860 -0.000001 0.000000 0.000000 14.797393 -37.226420 14.461793 -30.575984 -11.048441 -44.707386 0.493956 -74.019238 -30.604298 -57.958608 -13.781026 13.997055 16.185501 29.318427 -23.146312 0.081685 -3.109425 31.629663 86.669985 8.445495 -8.747657 0.000004 -0.000002 -0.000003 -8.914871 5.703409 -58.965269 -6.266486 -4.572891 -37.196210 -0.333631 -8.216119 -46.059869 -0.000003 -0.000003 0.000001 -10.611419 20.760929 -73.187717 4.781168 -0.851382 -40.707460 -4.823644 -0.735374 -57.317397 -0.000000 -0.000004 0.000005 -2.970120 0.498650 -81.883422 4.290174 -12.059090 -50.765473 -10.779443 -6.707770 -51.076411 -0.000003 0.000003 0.000006 0.016547 0.020158 -62.650743 3.417435 -3.814603 -92.040440 6.873829 -0.995166 -31.321970 -0.000001 0.000003 -0.000001 8.543454 23.488040 -10.146442 -38.867799 17.329180 74.233979 1.043341 74.257284 -12.688254 -24.406523 -14.577073 4.280187 -6.666399 -8.246976 4.694895 31.152500 -25.871657 -9.425323 34.286860 -23.029521 -7.680578 -0.000001 0.000001 0.000001 -4.887998 -9.034000 55.242601 0.234232 0.161408 104.710304 0.661669 -1.834185 38.217712 -0.000000 -0.000001 -0.000001 2.578527 -5.315564 71.485538 -14.334699 4.170147 107.253702 -6.775604 -3.699505 11.661573 0.000001 0.000000 -0.000004 -9.235599 -17.082831 80.313756 0.979618 -0.049186 88.783812 -5.884019 1.621752 12.164811 -0.000001 -0.000000 -0.000003 -10.019174 -21.702547 80.947038 2.834987 1.205229 62.935487 0.424046 4.422661 49.127652 0.000000 -0.000002 0.000004 -66.400285 8.669732 9.813694 64.623391 -5.150175 -0.812867 9.182112 -3.897430 0.875921 0.646030 0.466867 -22.640119 0.000001 -0.000001 -0.000001 -7.071694 -9.402548 -5.678995 16.020434 10.867657 -1.245720 10.840624 0.184139 -7.363581 -21.234056 -1.557770 5.006539 -0.000000 -0.000002 0.000000 
-3.252383 103.086975 32.065277 -0.860019 -19.064132 9.222963 27.111055 0.057873 -13.203148 -2.432354 1.831498 -0.014727 -2.464601 1.516834 0.008891 -3.860456 0.219213 -2.080590 -5.385484 7.679541 1.088411 -0.000000 0.000000 -0.000000 12.924671 -40.906437 8.986149 -30.293620 -9.850984 -29.840536 0.017673 -82.724574 -39.013494 -75.049319 -11.654015 16.493387 16.185499 29.318420 -23.146316 0.081686 -3.109434 31.629663 86.669985 8.445498 -8.747655 0.000000 0.000002 0.000004 -8.914867 5.703406 -58.965276 -6.266489 -4.572895 -37.196213 -0.333637 -8.216126 -46.059866 0.000001 -0.000000 -0.000001 -10.611420 20.760929 -73.187717 4.781169 -0.851381 -40.707460 -4.823644 -0.735376 -57.317397 -0.000001 0.000003 0.000004 -2.970118 0.498648 -81.883422 4.290169 -12.059096 -50.765470 -10.779439 -6.707772 -51.076407 -0.000002 0.000000 0.000004 0.016547 0.020157 -62.650743 3.417431 -3.814601 -92.040440 6.873830 -0.995170 -31.321967 0.000000 0.000002 -0.000003 9.078271 16.042356 -11.582977 -50.190108 22.337924 84.841359 0.464942 66.502567 -16.779729 -24.794941 -20.389054 7.221317 -6.666406 -8.246973 4.694894 31.152510 -25.871652 -9.425330 34.286853 -23.029521 -7.680576 -0.000002 0.000001 0.000001 -4.887998 -9.033998 55.242604 0.234227 0.161410 104.710311 0.661670 -1.834187 38.217712 0.000001 -0.000003 -0.000002 2.578527 -5.315562 71.485538 -14.334692 4.170147 107.253696 -6.775605 -3.699503 11.661578 0.000000 -0.000000 -0.000007 -9.235597 -17.082826 80.313756 0.979618 -0.049185 88.783812 -5.884018 1.621751 12.164809 -0.000004 -0.000000 0.000000 -10.019176 -21.702538 80.947044 2.834997 1.205225 62.935487 0.424045 4.422657 49.127652 -0.000002 0.000001 0.000006 -81.017033 14.693224 7.181782 80.379654 -5.691538 3.144179 13.936116 0.988849 11.778017 -0.829315 1.085761 -16.931510 0.000000 0.000001 -0.000000 -7.308881 -6.025797 -12.450287 25.475754 -2.346054 -2.011766 20.837208 -1.961772 -3.268165 -19.456130 -4.705868 10.301690 0.000001 0.000001 -0.000002 
